<?xml version="1.0" encoding="utf-8"?>
<!-- Generator: Adobe Illustrator 22.0.1, SVG Export Plug-In . SVG Version: 6.00 Build 0)  -->
<svg version="1.1" id="图层_1" xmlns="http://www.w3.org/2000/svg" xmlns:xlink="http://www.w3.org/1999/xlink" x="0px" y="0px"
	 viewBox="0 0 100 100" style="enable-background:new 0 0 100 100;" xml:space="preserve">
<style type="text/css">
	.st0{fill:#1BA260;}
	.st1{fill:#FFCE43;}
	.st2{fill:#DD4F43;}
	.st3{fill:#F1F2ED;}
	.st4{fill:#4B8BF6;}
</style>
<path id="Oval-6" class="st0" d="M72.8,57.9c-33.6-15.3-55.2-27-64.7-35.2C3,30.6,0,39.9,0,50c0,26.7,21,48.6,47.4,49.9
	C48.2,98.8,56.6,84.8,72.8,57.9z"/>
<path id="Combined-Shape" class="st1" d="M46.9,25.4c19.5,0.6,35.4,1.2,47.6,1.8C98,34.1,100,41.8,100,50c0,27.6-22.4,50-50,50
	c-0.6,0-1.5,0-2.7-0.1l22.3-38.6l-15.8-9.1l4.5-7.1L46.9,25.4z"/>
<path id="Combined-Shape_1_" class="st2" d="M8.1,22.8C17,9.1,32.4,0,50,0c19.4,0,36.3,11.1,44.5,27.3l-44.4,0l8.2,17.9l-28,16.2
	C30.3,61.3,8.1,22.8,8.1,22.8z"/>
<path id="Oval-6_1_" class="st3" d="M50,72.7c12.6,0,22.7-10.2,22.7-22.7S62.6,27.3,50,27.3S27.3,37.4,27.3,50S37.4,72.7,50,72.7z"
	/>
<circle id="Oval-6_2_" class="st4" cx="50" cy="50" r="18.1"/>
</svg>
