<?xml version="1.0" encoding="utf-8"?>
<!-- Generator: Adobe Illustrator 22.0.1, SVG Export Plug-In . SVG Version: 6.00 Build 0)  -->
<svg version="1.1" id="图层_1" xmlns="http://www.w3.org/2000/svg" xmlns:xlink="http://www.w3.org/1999/xlink" x="0px" y="0px"
	 viewBox="0 0 160 160" style="enable-background:new 0 0 160 160;" xml:space="preserve">
<style type="text/css">
	.st0{fill:url(#side_6_);}
	.st1{fill:url(#side_7_);}
	.st2{fill:#DEEAF4;}
	.st3{opacity:0.1337;}
	.st4{fill:none;}
	.st5{fill:#D2DEE9;}
	.st6{fill:url(#lid_2_);}
	.st7{fill:url(#path-10_2_);}
</style>
<linearGradient id="side_6_" gradientUnits="userSpaceOnUse" x1="-2050.4534" y1="143.1708" x2="-2050.8118" y2="143.5488" gradientTransform="matrix(-52.9473 0 0 83.957 -108535.3594 -11972.3369)">
	<stop  offset="0" style="stop-color:#CDD6DE"/>
	<stop  offset="1" style="stop-color:#9FACBA"/>
</linearGradient>
<polygon id="side" class="st0" points="70.3,28 17.4,46 17.4,112 70.3,94 "/>
<linearGradient id="side_7_" gradientUnits="userSpaceOnUse" x1="-1992.3713" y1="143.1908" x2="-1992.4254" y2="143.4756" gradientTransform="matrix(70.2164 0 0 82.1593 140008.7812 -11735.0479)">
	<stop  offset="0" style="stop-color:#D8E2EA"/>
	<stop  offset="1" style="stop-color:#B0C1D0"/>
</linearGradient>
<polygon id="side_1_" class="st1" points="70.1,28 140.3,44.2 140.3,110.2 70.1,93.9 "/>
<polygon id="side_2_" class="st2" points="17.4,46 87.6,62.2 87.6,131.1 17.4,111.9 "/>
<g id="side_3_" class="st3">
	<g>
		<polygon id="path-4_2_" points="17.4,46 87.6,62.2 87.6,131.1 17.4,111.9 		"/>
	</g>
	<g>
		<polygon id="path-4_1_" class="st4" points="17.4,46 87.6,62.2 87.6,131.1 17.4,111.9 		"/>
	</g>
</g>
<polygon id="side_4_" class="st5" points="141,44.2 87.5,62.2 87.5,131.1 140.4,110.1 "/>
<g id="side_5_" transform="translate(114.261870, 87.655977) scale(-1, 1) translate(-114.261870, -87.655977) " class="st3">
	<g>
		<polygon id="path-6_2_" points="87.5,44.2 141,62.2 141,131.1 88.1,110.1 		"/>
	</g>
	<g>
		<polygon id="path-6_1_" class="st4" points="87.5,44.2 141,62.2 141,131.1 88.1,110.1 		"/>
	</g>
</g>
<linearGradient id="lid_2_" gradientUnits="userSpaceOnUse" x1="-2041.738" y1="151.5919" x2="-2041.9767" y2="152.1055" gradientTransform="matrix(-72.1881 0 0 47.4875 -147274.0156 -7142.1938)">
	<stop  offset="0" style="stop-color:#F1F6FA"/>
	<stop  offset="1" style="stop-color:#DEEAF4"/>
</linearGradient>
<polygon id="lid" class="st6" points="140.8,44.1 159.5,70.2 105.3,91.6 87.3,61.8 "/>
<g id="lid_1_" transform="translate(0.000000, 45.377870)">
	<g id="Mask">
		
			<linearGradient id="path-10_2_" gradientUnits="userSpaceOnUse" x1="-1997.5104" y1="152.281" x2="-1997.5752" y2="152.9856" gradientTransform="matrix(88.0878 0 0 45.542 176003.2031 -6929.5415)">
			<stop  offset="0" style="stop-color:#F1F6FA"/>
			<stop  offset="1" style="stop-color:#DEEAF4"/>
		</linearGradient>
		<polygon id="path-10_1_" class="st7" points="17.7,0 0,27.3 68.3,45.5 88.1,16.2 		"/>
	</g>
</g>
</svg>
