<?xml version="1.0" encoding="UTF-8"?>
<svg width="68px" height="32px" viewBox="0 0 68 32" version="1.1" xmlns="http://www.w3.org/2000/svg" xmlns:xlink="http://www.w3.org/1999/xlink">
    <!-- Generator: Sketch 52.5 (67469) - http://www.bohemiancoding.com/sketch -->
    <title>占位logo</title>
    <desc>Created with Sketch.</desc>
    <defs>
        <polygon id="path-1" points="0 5.67157831e-05 67.3996743 5.67157831e-05 67.3996743 31.9806792 0 31.9806792"></polygon>
    </defs>
    <g id="Page-1" stroke="none" stroke-width="1" fill="none" fill-rule="evenodd">
        <g id="海报预览" transform="translate(-474.000000, -322.000000)">
            <g id="占位logo" transform="translate(474.000000, 322.000000)">
                <mask id="mask-2" fill="white">
                    <use xlink:href="#path-1"></use>
                </mask>
                <g id="Clip-2"></g>
                <path d="M18.6376566,18.915683 L16.5194265,18.915683 C16.1276743,18.9180981 15.7666124,18.6995321 15.5866832,18.3499472 L14.5371965,16.5386264 C14.4373027,16.3750038 14.3831434,16.1872302 14.3819398,15.9952302 C14.3879575,15.811683 14.4342938,15.6323623 14.5179398,15.4687396 L15.5674265,13.635683 C15.7479575,13.2860981 16.1078159,13.0675321 16.5001699,13.0699472 L18.6382584,13.0699472 C19.0306124,13.0675321 19.3910726,13.2860981 19.5710018,13.635683 L20.6012319,15.4470038 C20.7017274,15.6100226 20.755285,15.7984 20.7564885,15.9904 C20.7504708,16.1793811 20.7041345,16.3641358 20.6204885,16.5337962 L19.5710018,18.3692679 C19.3850549,18.7110038 19.0257982,18.921117 18.6376566,18.915683 Z M53.4482407,31.9807396 L41.7859398,31.9807396 C39.6418336,31.9777208 37.6716389,30.7955321 36.6546478,28.9014943 L34.2836743,24.7867774 L37.6457628,18.9168906 L38.8703646,21.0620981 L40.658223,24.1824 C41.3045239,25.3875321 42.5598159,26.1374189 43.9234265,26.1325887 L51.3089487,26.1325887 C52.6502938,26.1301736 53.8851257,25.3984 54.5350372,24.2216453 L58.1889841,17.8645132 C58.8473204,16.6931925 58.8322761,15.2580226 58.149869,14.1011925 L54.5548956,7.8394566 C53.9110018,6.62949434 52.6569133,5.87296604 51.289692,5.86994717 L43.9041699,5.86994717 C42.5441699,5.8784 41.2948956,6.62466415 40.6389664,7.82013585 C36.9850195,14.1965887 36.9459044,14.2551547 28.4332673,28.9582491 C27.3988248,30.8178717 25.4448779,31.9734943 23.3218336,31.9807396 L11.6601345,31.9807396 C9.51602832,31.9777208 7.54583363,30.7955321 6.52884248,28.9014943 L0.831886726,18.9935698 C-0.255511504,17.1737962 -0.278378761,14.9072302 0.771709735,13.0657208 L6.51018761,3.07930566 C7.53560354,1.18406038 9.51121416,0.00307924528 11.6601345,6.03773585e-05 L23.3218336,6.03773585e-05 C25.478577,-0.00235471698 27.4602053,1.19009811 28.4723823,3.10043774 L30.8602053,7.23447547 L27.4782584,13.065117 L24.4465416,7.80021132 C23.8032496,6.59085283 22.5497628,5.83432453 21.1837451,5.83070189 L13.798223,5.83070189 C12.438223,5.83915472 11.1889487,6.58541887 10.5330195,7.78089057 L6.8983292,14.1380226 C6.58420531,14.7043623 6.41691327,15.3419472 6.41270088,15.9904 C6.40969204,16.6636075 6.59082478,17.3247396 6.93744425,17.9013434 L8.74275398,21.0602868 L10.5306124,24.1805887 C11.1769133,25.3857208 12.4322053,26.1356075 13.7958159,26.1307774 L21.1837451,26.1307774 C22.4251965,26.1325887 23.5854088,25.5100981 24.2738336,24.4734189 L36.6155327,3.09983396 C37.6403469,1.19190943 39.6255858,0.00187169811 41.7859398,6.03773585e-05 L53.4470372,6.03773585e-05 C55.6037805,-0.00235471698 57.5854088,1.19009811 58.5975858,3.10043774 L64.2728779,12.9679094 C65.3608779,14.7943245 65.3837451,17.0669283 64.3330549,18.915683 L58.5608779,28.9383245 C57.537869,30.8130415 55.5779044,31.9795321 53.4470372,31.9807396 L53.4482407,31.9807396 Z M65.303108,31.9807396 L63.1650195,31.9807396 C62.7726655,31.9831547 62.4128071,31.7645887 62.2322761,31.4150038 L61.1827894,29.603683 C61.0822938,29.4406642 61.0287363,29.2522868 61.0275327,29.0602868 C61.0335504,28.8767396 61.0798867,28.6968151 61.1635327,28.5337962 L62.2130195,26.7007396 C62.3929487,26.3505509 62.7540106,26.1325887 63.1457628,26.1350038 L65.2814442,26.1350038 C65.6737982,26.1325887 66.0342584,26.3505509 66.2141876,26.7007396 L67.2444177,28.5120604 C67.3449133,28.675683 67.3984708,28.8634566 67.3996743,29.0554566 C67.3936566,29.243834 67.3473204,29.4291925 67.2636743,29.5988528 L66.2141876,31.4313057 C66.0348602,31.7694189 65.6846301,31.9807396 65.303108,31.9807396 Z" id="Fill-1" fill="#CCD5DB" mask="url(#mask-2)"></path>
            </g>
        </g>
    </g>
</svg>