<svg xmlns="http://www.w3.org/2000/svg" xmlns:xlink="http://www.w3.org/1999/xlink" width="24" height="24" viewBox="0 0 24 24"><defs><style>.a{clip-path:url(#b);}.b{fill:#252b3f;}.b,.e{fill-rule:evenodd;}.c,.e{fill:#ff2a6a;}.d{fill:#fff;}</style><clipPath id="b"><rect width="24" height="24"/></clipPath></defs><g id="a" class="a"><path class="b" d="M0,0H14l6,6V24H0Z" transform="translate(2)"/><rect class="c" width="20" height="7" transform="translate(2 17)"/><path class="d" d="M6,18H7a1.5,1.5,0,0,1,0,3H6v2H5V18Zm8,1v1h2v1H14v2H13V18h3v1ZM6,19v1H7a.5.5,0,0,0,0-1Zm3-1h1.5a2.006,2.006,0,0,1,2,2v1a2.006,2.006,0,0,1-2,2H9Zm1,1v3h.5a1,1,0,0,0,1-1V20a1,1,0,0,0-1-1Z" transform="translate(2)"/><path class="e" d="M14,0l6,6H14Z" transform="translate(2)"/><path class="c" d="M9.332,2c.395,0,.609.48.675.73l.014.062a3.251,3.251,0,0,1-.117.964L9.892,3.8a3.46,3.46,0,0,0-.075-.833l-.054-.179a1.493,1.493,0,0,0-.452-.677l-.065-.027c-.072.037-.114.134-.151.293l-.022.1c-.037.264-.074.592-.084.792l0,.088a9.642,9.642,0,0,0,.3,2.205l.091.346.065-.2h0l.065-.2c.04-.205.343-1.407.383-1.566l0-.017s-.077,1.658-.2,2.281l-.02.094a1.988,1.988,0,0,0-.054.231l-.032.121a7.858,7.858,0,0,0,1.77,2.919l.212.2a5.389,5.389,0,0,0,.91.655l.253.137a15.215,15.215,0,0,1,2-.173l.285,0a3.62,3.62,0,0,1,1.694.333l.073.062a.743.743,0,0,1,.189.339l.027.1a1.24,1.24,0,0,1-.036.216l-.007.047c0-.041,0-.235-.56-.476l-.129-.052a7.561,7.561,0,0,0-2.559-.072l-.284.028a6.773,6.773,0,0,0,3.2.9l.076-.023a1.482,1.482,0,0,0,.245-.207l.013-.013s-.066.269-.111.4l-.018.044a1.475,1.475,0,0,1-.248.216l-.1.047a7.239,7.239,0,0,1-3.906-1.059l-.229-.129a33.317,33.317,0,0,0-4.755,1.1l-.543.174c-1.5,2.639-2.638,3.919-3.569,3.56L3.388,15.9l-.258-.132A.4.4,0,0,1,3,15.415v-.088c.081-.5.7-1.266,1.882-2.052l.229-.147c.117-.08.7-.378.8-.432l.016-.008-.05.051c-.11.111-.371.373-.5.483l-.048.037a5.568,5.568,0,0,0-1.845,2.384l-.007.08v.044c.9-.132,2.283-2.067,4.049-5.586.345-.7.717-1.436,1.05-2.2l.242-.575.129-.4a11.755,11.755,0,0,1-.6-4.39l.04-.184a.7.7,0,0,1,.589-.433L9.074,2Zm0,5.938A15.443,15.443,0,0,1,8.3,10.4c-.258.484-.474.968-.689,1.408h.043a20.41,20.41,0,0,1,3.692-.955L11.7,10.8l-.258-.2h0l-.258-.2A7.854,7.854,0,0,1,9.446,8.17Z" transform="translate(2)"/></g></svg>