<svg width="36" height="36" viewBox="0 0 36 36" xmlns="http://www.w3.org/2000/svg"><g transform="translate(-48 -376) translate(54 381)" fill-rule="nonzero" fill="none"><path d="M7 23.482c1.8 0 3.265 1.399 3.265 1.747 0 .347-1.462.632-3.265.632-1.803 0-3.265-.234-3.265-.911s1.462-1.468 3.265-1.468z" fill="#FFCC24"/><path d="M16.587 23.482c1.8 0 3.265.87 3.265 1.468 0 .597-1.462.911-3.265.911-1.803 0-3.265-.284-3.265-.632 0-.348 1.462-1.747 3.265-1.747z" fill="#FFCC24"/><path d="M3.471 18.533c-.273.567-.601 1.105-.981 1.607-.332.473-.779.853-1.299 1.105-.284 0-.069-3.133.694-5.754.456-1.522 1.062-2.994 1.807-4.397l.049-.276c0-6.269 2.297-10.676 7.913-10.676 5.635 0 8.156 4.764 8.01 10.72l.013.301c.797 1.365 1.431 2.818 1.889 4.331.764 2.621.869 5.75.639 5.75-.113 0-.625-.227-1.307-1.141-.369-.518-.709-1.057-1.018-1.613-.521 3.64-2.603 6.947-8.229 6.947-5.182.001-7.639-2.998-8.182-6.904z" fill="#000"/><ellipse fill="#fff" cx="9.571" cy="5.314" rx="1.528" ry="2.096"/><ellipse fill="#fff" cx="13.738" cy="5.314" rx="1.528" ry="2.096"/><ellipse fill="#000" cx="9.988" cy="5.593" rx="1" ry="1"/><path d="M13.548 5.013c.193 0 1.18-.009 1.069.44-.111.449-.343-.023-.949 0-.606.023-.92.546-1.041.21-.121-.336.73-.651.921-.651z" fill="#000"/><path d="M11.724 7.93c2.431 0 4.794.633 4.794 1.017 0 .384-2.363 1.725-4.794 1.725-2.431 0-4.931-1.311-4.931-1.725 0-.414 2.5-1.017 4.931-1.017z" fill="#FFB243"/><path d="M17.247 13.412c.508 1.466.66.96.66 4.55.066 3.52-2.732 6.428-6.252 6.498-3.521-.069-6.319-2.978-6.252-6.499.011-1.53.179-3.054.502-4.549 1.376-.117 9.334.001 11.343.001z" fill="#fff"/><path d="M3.738 10.904c2.591.602 5.239.926 7.898.964 2.71-.045 5.407-.368 8.051-.964 0 0 .45.814.754 1.548.304.734.564 1.387.564 1.387-3.071.736-6.212 1.14-9.369 1.205-.45 0-.894-.012-1.381-.034v3.593c-1.209.064-2.42.013-3.619-.152 0-.721.018-2.743.114-3.783-1.449-.203-2.886-.48-4.307-.829 0 0 .244-.738.558-1.472.22-.5.466-.988.737-1.462z" fill="#F23636"/></g></svg>