<svg width="36" height="36" viewBox="0 0 36 36" xmlns="http://www.w3.org/2000/svg"><g fill="none"><path d="M13.45 12.59c2.829-5.393 4.475-8.09 4.936-8.09.461 0 2.035 2.697 4.721 8.09 6.11.941 9.165 1.587 9.165 1.939 0 .351-2.091 2.68-6.274 6.986 1.071 6.4 1.426 9.599 1.067 9.599s-3.252-1.276-8.679-3.828c-5.498 2.552-8.455 3.828-8.871 3.828-.416 0 .083-3.2 1.499-9.599-4.342-4.021-6.513-6.286-6.513-6.794s2.983-1.218 8.95-2.131z" fill="#FFCE02"/><path d="M11.313 16.11c8.754-.524 13.247-.593 13.479-.205.347.582-3.408 3.979-5.157 5.952.59 1.117 6.479.767 8.395 0-.141.615-.688 1.288-1.639 2.02l.27 1.773c-2.124.041-4.621.061-7.489.061-2.868 0-5.354-.715-7.458-2.145 3.932-1.705 5.852-3.297 5.761-4.775-.136-.572-2.189-1.466-6.161-2.681z" fill="#F2A307"/><path d="M19.157 14.143c2.267 0 4.026.419 5.275 1.257-3.517 2.859-5.588 4.563-6.215 5.112 2.17.861 9.106 1.146 9.812 1.345-2.143 1.292-7.976 2.314-11.186 2.314s-5.13-.261-5.13-.605.726-.788 2.645-2.326 4.437-3.433 5.54-4.433c-1.681-.736-7.137-.736-8.841-.736 0-.671 4.699-1.929 8.1-1.929z" fill="#fff"/></g></svg>