<svg width="36" height="36" viewBox="0 0 36 36" xmlns="http://www.w3.org/2000/svg"><defs><radialGradient cx="46.909%" cy="0%" fx="46.909%" fy="0%" r="182.286%" gradientTransform="matrix(0 1 -.871 0 .469 -.469)" id="a"><stop stop-color="#FF681D" offset="0%"/><stop stop-color="#CB0000" offset="100%"/></radialGradient><radialGradient cy="0%" fx="50%" fy="0%" r="100%" gradientTransform="matrix(0 1 -.727 0 .5 -.5)" id="b"><stop stop-color="#fff" offset="0%"/><stop stop-color="#FFF0F0" offset="100%"/></radialGradient><radialGradient cy="0%" fx="50%" fy="0%" r="100%" gradientTransform="matrix(0 1 -.959 0 .5 -.5)" id="c"><stop stop-color="#555" offset="0%"/><stop offset="100%"/></radialGradient><radialGradient cx="17.745%" cy="0%" fx="17.745%" fy="0%" r="241.652%" gradientTransform="matrix(.575 .755 -.818 .53 .075 -.134)" id="d"><stop stop-color="#FFA200" offset="0%"/><stop stop-color="#f70" offset="100%"/></radialGradient><radialGradient cx="17.745%" cy="0%" fx="17.745%" fy="0%" r="292.923%" gradientTransform="matrix(.281 .887 -.96 .259 .127 -.157)" id="e"><stop stop-color="#FFA200" offset="0%"/><stop stop-color="#f70" offset="100%"/></radialGradient></defs><g fill="none"><path d="M23.961 16.491c.409-1.124.451-2.094.008-2.785-.831-1.298-3.106-1.227-5.713-.035 0-.002-.819.391-.609-.318.401-1.408.341-2.588-.283-3.269-1.415-1.546-5.176.058-8.402 3.581-2.416 2.64-3.818 5.437-3.818 7.856 0 4.627 5.431 7.439 10.743 7.439 6.965 0 11.598-4.421 11.598-7.931 0-2.121-1.635-3.324-3.104-3.822-.361-.118-.608-.199-.419-.716z" fill="url(#a)"/><path d="M7.732 22.651c-.274-3.039 2.925-5.873 7.143-6.331 4.219-.458 7.861 1.635 8.135 4.673.274 3.04-2.924 5.875-7.143 6.333-4.219.457-7.861-1.636-8.135-4.675z" fill="url(#b)"/><path d="M11.15 21.108c-.892 1.989-.029 4.198 2.007 4.919 2.11.747 4.596-.398 5.461-2.545.853-2.099-.212-4.26-2.298-4.852-2.016-.576-4.294.527-5.17 2.478zm4.974.688c-.147.278-.471.412-.725.296-.25-.114-.328-.425-.186-.698.146-.272.458-.404.707-.295.253.103.344.417.204.697zm-1.391 1.903c-.402.719-1.263 1.034-1.911.702-.639-.326-.828-1.161-.426-1.862.397-.698 1.229-1.009 1.873-.707.651.311.859 1.141.464 1.867z" fill="url(#c)"/><path d="M29.048 8.789c-1.692-1.912-4.188-2.641-6.491-2.141h-.001c-.533.116-.873.651-.759 1.193.114.543.638.889 1.171.774 1.639-.355 3.412.164 4.615 1.522 1.202 1.358 1.528 3.21 1.013 4.834-.168.529.116 1.095.636 1.266.517.171 1.074-.118 1.242-.646v-.004c.722-2.284.266-4.888-1.427-6.797" fill="url(#d)"/><path d="M26.463 11.193c-.827-.944-2.049-1.302-3.177-1.056-.461.101-.755.567-.656 1.042.099.472.552.776 1.012.673v.001c.551-.12 1.149.055 1.554.516.405.462.514 1.09.34 1.642h.001c-.144.461.101.956.549 1.105.448.148.929-.104 1.074-.565.354-1.128.133-2.413-.696-3.357" fill="url(#e)"/></g></svg>