<?xml version="1.0" encoding="UTF-8"?>
<svg width="8px" height="8px" viewBox="0 0 8 8" version="1.1" xmlns="http://www.w3.org/2000/svg" xmlns:xlink="http://www.w3.org/1999/xlink">
    <!-- Generator: Sketch 60 (88103) - https://sketch.com -->
    <title>编组</title>
    <desc>Created with Sketch.</desc>
    <g id="网站" stroke="none" stroke-width="1" fill="none" fill-rule="evenodd">
        <g id="编组">
            <rect id="矩形" fill="#FFFFFF" x="0" y="0" width="8" height="8" rx="4"></rect>
            <rect id="矩形" fill="#FF4B4B" x="0.5" y="0.5" width="7" height="7" rx="3.5"></rect>
            <path d="M4,2 C4.27614237,2 4.5,2.22385763 4.5,2.5 L4.5,3.5 L5.5,3.5 C5.77614237,3.5 6,3.72385763 6,4 C6,4.27614237 5.77614237,4.5 5.5,4.5 L4.5,4.5 L4.5,5.5 C4.5,5.77614237 4.27614237,6 4,6 C3.72385763,6 3.5,5.77614237 3.5,5.5 L3.5,4.5 L2.5,4.5 C2.22385763,4.5 2,4.27614237 2,4 C2,3.72385763 2.22385763,3.5 2.5,3.5 L3.5,3.5 L3.5,2.5 C3.5,2.22385763 3.72385763,2 4,2 Z" id="形状结合" fill="#FFFFFF" transform="translate(4.000000, 4.000000) rotate(45.000000) translate(-4.000000, -4.000000) "></path>
        </g>
    </g>
</svg>