<?xml version="1.0" encoding="UTF-8"?>
<svg width="128px" height="24px" viewBox="0 0 128 24" version="1.1" xmlns="http://www.w3.org/2000/svg" xmlns:xlink="http://www.w3.org/1999/xlink">
    <!-- Generator: Sketch 60 (88103) - https://sketch.com -->
    <title>LOGO蓝色PNG透明小</title>
    <desc>Created with Sketch.</desc>
    <defs>
        <path d="M46.6666146,18.9784596 C46.9409778,18.9768159 47.1930822,19.1271837 47.3190997,19.367648 L48.0397799,20.6136722 C48.1099961,20.7261094 48.1475649,20.8554147 48.1483871,20.9874794 C48.143972,21.1173384 48.1115385,21.2447752 48.0532506,21.3612867 L47.3190997,22.6222631 C47.1936956,22.8546499 46.9486029,22.999822 46.6817691,22.999822 L45.186105,22.999822 C44.9117419,23.0014656 44.6596374,22.8510979 44.53362,22.6106336 L43.7994691,21.3646094 C43.7292529,21.2521722 43.6916841,21.1228669 43.6908619,20.9908022 C43.6950497,20.8646218 43.7275417,20.7409274 43.7859984,20.6286245 L44.5201493,19.367648 C44.6461668,19.1271837 44.8982713,18.9768159 45.1726344,18.9784596 L46.6666146,18.9784596 Z M17.3144701,1.00000296 C18.8229707,0.998201506 20.2090898,1.81871233 20.9174504,3.13278394 L22.587812,5.97662641 L20.2220276,9.98757817 L18.1012408,6.36580129 C17.6511267,5.53414989 16.7743539,5.01370129 15.818806,5.01095769 L10.6523874,5.01095769 C9.70092867,5.01690267 8.82713686,5.53011497 8.36826882,6.35251036 L5.82568197,10.7256398 C5.60585255,11.1155353 5.48902592,11.5537532 5.4859688,11.9999072 C5.48358385,12.4630468 5.61059091,12.9178792 5.85304425,13.3144627 L7.11591851,15.4875288 L8.36658499,17.6340131 C8.8184902,18.4630182 9.69667514,18.9788108 10.6507036,18.9755658 L15.818806,18.9755658 C16.6874199,18.9767903 17.4989442,18.5487646 17.9804258,17.8354537 L26.6138552,3.1323686 C27.3308269,1.81990131 28.7195945,1.00113961 30.2307271,1.00000296 L38.3880529,1.00000296 C39.8965535,0.998201506 41.2826726,1.81871233 41.9910332,3.13278394 L45.9610889,9.92070821 C46.7219209,11.1772654 46.7380063,12.7406988 46.0031847,14.0122362 L41.9653547,20.9069032 C41.2497846,22.1967705 39.8783886,22.9991076 38.3880529,22.9998084 L30.2307271,22.9998084 C28.7307155,22.9978385 27.3525624,22.1845629 26.6412175,20.8815674 L24.9826426,18.0510158 L27.3345354,14.0130669 L28.1911851,15.4887748 L29.4418516,17.6352591 C29.8937568,18.4642643 30.7719418,18.9800568 31.7259702,18.9768118 L36.8923888,18.9768118 C37.8306897,18.9751959 38.6944343,18.4720666 39.1491451,17.6622563 L41.7052026,13.2891268 C42.16573,12.4833934 42.1552979,11.4963863 41.6778403,10.700304 L39.1630367,6.39279848 C38.7126369,5.56062299 37.8350708,5.04008747 36.8789181,5.03795488 L31.7124995,5.03795488 C30.7610408,5.04389986 29.887249,5.55711216 29.428381,6.37950755 C26.8723235,10.7659279 26.8449612,10.806216 20.8900881,20.9206095 C20.1662966,22.1999854 18.7994682,22.9947873 17.3144701,22.9998084 L9.15672332,22.9998084 C7.65671179,22.9978385 6.27855868,22.1845629 5.56721371,20.8815674 L1.58200349,14.0658152 C0.821347055,12.8141404 0.80524873,11.2546954 1.53990769,9.98799351 L5.55416401,3.118247 C6.27131754,1.81458063 7.65335101,1.00196942 9.15672332,1.00000296 L17.3144701,1.00000296 Z M74.9735085,1.81480872 L74.9735085,10.2685243 C74.9735085,12.3353143 72.9048527,12.4042073 72.7669423,12.4065038 L59.8294417,12.406583 L59.171004,13.4876825 L74.9728461,13.4876825 L74.9728461,21.1512885 C74.9919749,21.6391982 74.8067591,22.113423 74.4605704,22.4629141 C74.1143818,22.8124053 73.637624,23.0064692 73.1419389,22.9998353 L68.7362356,22.9998353 L68.7362356,19.9729749 L71.0228824,19.9729749 C71.1401253,19.975494 71.2533245,19.9307292 71.3362475,19.849054 C71.4191705,19.7673789 71.4646193,19.6558832 71.4620616,19.5404046 L71.4620616,16.0824519 L57.8693642,16.0824519 L57.0406865,17.1263621 C56.7847305,17.5629776 55.8692239,17.5926536 55.7482939,17.5946699 L53.0258065,17.5948168 L53.0258065,14.568782 L54.1234234,14.568782 L55.6595572,12.4085403 L54.1234234,12.4085403 L54.1234234,1.81480872 L74.9735085,1.81480872 Z M70.0967742,17.2961743 L65.7733239,22.4542965 C65.4358168,22.7850147 64.9770443,22.9803135 64.4918096,22.9998353 L61.1548387,22.9991733 L61.1548387,19.9285314 L62.7013251,19.9285314 C63.0508688,19.9331202 63.3882333,19.807043 63.6402633,19.5776387 L65.6922243,17.2961743 L70.0967742,17.2961743 Z M91.756609,5.8888523 L91.756609,9.61853412 L100.967241,9.61853412 L100.987097,12.2510949 L91.7579327,12.2510949 L91.7579327,19.9316043 L100.968564,19.9282937 L100.968564,22.9998353 L79.0387097,22.9998353 L79.0387097,19.9289558 L81.4512386,19.9289558 L81.4512386,8.30225373 L84.9591681,8.30225373 L84.9591681,19.9289558 L88.2486794,19.9289558 L88.2486794,5.8888523 L91.756609,5.8888523 Z M126.998675,1 L126.998202,2.77350863 C126.989443,2.93599099 126.81864,4.52019402 123.487993,4.52019402 L117.782141,4.52019402 L117.782141,5.83943685 L127,5.83943685 L127,8.25948725 L121.952566,8.25948725 L122.275152,9.15447434 C122.275152,9.15447434 122.478506,9.57873008 122.849446,9.57873008 L122.848122,9.57939402 L126.999338,9.57939402 L126.999338,12.2205354 L121.190815,12.2205354 C120.466993,12.1588565 119.845046,11.6808758 119.59776,10.9962356 L118.439897,8.26081512 L117.781479,8.26081512 L117.781479,13.3200151 L126.672116,13.3200151 L125.365214,16.6197821 L126.998675,16.6197821 L126.998006,21.4776178 C126.988295,21.6514774 126.837778,22.9988888 124.504766,22.9988888 L117.562227,22.9988888 L117.562227,19.9182211 L122.829575,19.9182211 C123.005291,19.9218764 123.174889,19.8535202 123.299166,19.7289537 C123.423443,19.6043873 123.49164,19.4343934 123.487993,19.2582677 L123.487993,18.8180775 L120.415153,18.8180775 L121.292823,15.9585008 L112.197507,15.9585008 L110.954858,21.0236762 C110.582407,22.1776019 109.526685,22.9631692 108.330101,22.9985862 L105.052275,22.9982249 L105.052275,19.9182211 L106.787745,19.9182211 C106.787745,19.9182211 107.282552,19.9182211 107.383898,19.5344655 L108.340393,15.9585008 L105.051613,15.9585008 L105.051613,13.3186873 L114.269472,13.3186873 L114.269472,8.25948725 L113.613703,8.25948725 L112.421396,10.9949077 C112.421396,10.9949077 111.825242,12.2192076 109.52144,12.2192076 L105.0536,12.2192076 L105.0536,9.57939402 L109.139239,9.57939402 C109.468905,9.57116764 109.753974,9.34673992 109.840051,9.02766237 L110.101034,8.25948725 L105.0536,8.25948725 L105.0536,5.83943685 L114.271459,5.83943685 L114.271459,4.51886614 L105.052275,4.51886614 L105.052275,1.87971654 L123.048827,1.87971654 C123.166122,1.88247104 123.279429,1.83697907 123.362392,1.75382277 C123.445355,1.67066647 123.490741,1.5570948 123.487993,1.4395263 L123.487993,1 L126.998675,1 Z M62.7806452,17.2961743 L58.3986021,22.293592 C57.970366,22.7701331 57.3390279,23.0296107 56.6868665,22.9971088 L53.0258065,22.9971088 L53.0258065,19.9275785 L55.4633179,19.9275785 C55.755967,19.9238126 56.031919,19.7951698 56.2171663,19.576151 L58.4602246,17.2961743 L62.7806452,17.2961743 Z M14.0381533,9.99088734 C14.3125164,9.9892437 14.5646209,10.1396115 14.6906383,10.3800758 L15.4113186,11.6260999 C15.4815348,11.7385372 15.5191035,11.8678424 15.5199258,11.9999072 C15.5155107,12.1297662 15.4830771,12.257203 15.4247892,12.3737144 L14.6906383,13.6363522 C14.560405,13.8713317 14.3091455,14.0159841 14.0377323,14.0122362 L12.5559599,14.0122362 C12.2815967,14.0138934 12.0294923,13.8635256 11.9034748,13.6230613 L11.1693239,12.3770372 C11.0991078,12.2645999 11.061539,12.1352947 11.0607167,12.0032299 C11.0649046,11.8770496 11.0973965,11.7533551 11.1558533,11.6410522 L11.8900042,10.3800758 C12.0160216,10.1396115 12.2681261,9.9892437 12.5424892,9.99088734 L14.0381533,9.99088734 Z M71.7225806,8.33327845 L57.9032258,8.33327845 L57.9032258,9.96289588 L71.391431,9.96125642 C71.4799388,9.96422291 71.5655372,9.9219943 71.6281445,9.84447756 C71.6907519,9.76696083 71.7248583,9.66097795 71.7225806,9.55139288 L71.7225806,8.33327845 Z M97.4753283,1 L99.6701008,4.25923486 L100.987097,4.25923486 L100.987097,7.51846973 L97.4759908,7.51846973 L95.0606149,4.25923486 L84.9645291,4.25923486 L82.5498156,7.51846973 L79.0387097,7.51846973 L79.0387097,4.25923486 L80.3557056,4.25923486 L82.5498156,1 L97.4753283,1 Z M71.7225806,4.25923486 L57.9032258,4.25923486 L57.9032258,5.8888523 L71.7225806,5.8888523 L71.7225806,4.25923486 Z" id="path-1"></path>
        <filter x="-1.6%" y="-4.5%" width="103.2%" height="118.2%" filterUnits="objectBoundingBox" id="filter-2">
            <feOffset dx="0" dy="1" in="SourceAlpha" result="shadowOffsetOuter1"></feOffset>
            <feGaussianBlur stdDeviation="0.5" in="shadowOffsetOuter1" result="shadowBlurOuter1"></feGaussianBlur>
            <feColorMatrix values="0 0 0 0 0   0 0 0 0 0   0 0 0 0 0  0 0 0 0.5 0" type="matrix" in="shadowBlurOuter1"></feColorMatrix>
        </filter>
    </defs>
    <g id="网站" stroke="none" stroke-width="1" fill="none" fill-rule="evenodd">
        <g id="LOGO蓝色PNG透明小" transform="translate(0.000000, -1.000000)">
            <rect id="矩形" fill="#FFFFFF" opacity="0" x="0" y="0" width="128" height="24"></rect>
            <g id="形状结合" fill-rule="nonzero">
                <use fill="black" fill-opacity="1" filter="url(#filter-2)" xlink:href="#path-1"></use>
                <use fill="#FFFFFF" xlink:href="#path-1"></use>
            </g>
        </g>
    </g>
</svg>