<svg xmlns="http://www.w3.org/2000/svg" xmlns:xlink="http://www.w3.org/1999/xlink" width="800" height="800" viewBox="0 0 800 800"><g><path class="b" d="M180,0h74a0,0,0,0,1,0,0V254a0,0,0,0,1,0,0H0a0,0,0,0,1,0,0V180A180,180,0,0,1,180,0Z" transform="translate(10 10)"/></g><g><rect class="b" width="254" height="254" transform="translate(273 10)"/></g><g><rect class="b" width="254" height="254" transform="translate(536 10)"/></g><g><rect class="b" width="254" height="254" transform="translate(273 273)"/></g><g><rect class="b" width="254" height="254" transform="translate(10 273)"/></g><g><rect class="b" width="254" height="254" transform="translate(536 273)"/></g><g><rect class="b" width="254" height="254" transform="translate(273 536)"/></g><g><rect class="b" width="254" height="254" transform="translate(10 536)"/></g><g><path class="b" d="M0,0H254a0,0,0,0,1,0,0V74A180,180,0,0,1,74,254H0a0,0,0,0,1,0,0V0A0,0,0,0,1,0,0Z" transform="translate(536 536)"/></g></svg>