<svg xmlns="http://www.w3.org/2000/svg" xmlns:xlink="http://www.w3.org/1999/xlink" width="800" height="800" viewBox="0 0 800 800"><g><path class="b" d="M0,198,198,0,396,198,198,396Z" transform="translate(202)"/></g><g><path class="b" d="M0,198,198,0,396,198,198,396Z" transform="translate(202 404)"/></g><g><path class="b" d="M0,198,198,0,396,198,198,396Z" transform="translate(0 202)"/></g><g><path class="b" d="M0,198,198,0,396,198,198,396Z" transform="translate(404 202)"/></g><g><path class="b" d="M394,394H788L394,788Z" transform="translate(-394 -394)"/></g><g><path class="b" d="M0,394H394V788Z" transform="translate(406 -394)"/></g><g><path class="b" d="M394,0,788,394H394Z" transform="translate(-394 406)"/></g><g><path class="b" d="M0,394,394,0V394Z" transform="translate(406 406)"/></g></svg>