<svg xmlns="http://www.w3.org/2000/svg" xmlns:xlink="http://www.w3.org/1999/xlink" width="1000" height="1000" viewBox="0 0 1000 1000"><g><path d="M180,0,360,360H0Z" transform="translate(316.005 3.084)"/></g><g><path  d="M150,0,300,300H0Z" transform="translate(561.713 289.111)"/></g><g><path  d="M150,0,300,300H0Z" transform="translate(700.397 474.871)"/></g><g><path  d="M150,0,300,300H0Z" transform="translate(130.633 289.44)"/></g><g><path  d="M175,0,350,350H0Z" transform="translate(325.185 356.776)"/></g><g><path  d="M150,0,300,300H0Z" transform="translate(534.184 609.935)"/></g><g><path  d="M150,0,300,300H0Z" transform="translate(-0.401 460.332)"/></g><g><path  d="M150,0,300,300H0Z" transform="translate(152.655 644.17)"/></g><g><path  d="M150,0,300,300H0Z" transform="translate(367.792 704.581)"/></g></svg>
