<svg xmlns="http://www.w3.org/2000/svg" xmlns:xlink="http://www.w3.org/1999/xlink" version="1.1" id="图层_1" x="0px" y="0px" viewBox="0 0 2000 1689.1" enable-background="new 0 0 2000 1689.1" xml:space="preserve"><g><path d="M317.2,199.3c-28.3,0-56.6-0.4-84.9,0.2c-11.4,0.2-15.2-3.7-15.2-15.1c0.4-54.6,0.4-109.1,0-163.7c-0.1-10.5,2.1-16.1,14.3-16c56.6,0.5,113.2,0.4,169.7,0c10.6-0.1,14,3.8,14,14.2c-0.3,55.2-0.4,110.5,0.1,165.7c0.1,11.6-4.1,15.1-15.3,14.9C372.4,198.9,344.8,199.3,317.2,199.3z"/></g><g><path d="M530.7,199.3c-28.3,0-56.6-0.4-84.9,0.2c-11.4,0.2-15.2-3.7-15.2-15.1c0.4-54.6,0.4-109.1,0-163.7c-0.1-10.5,2.1-16.1,14.3-16c56.6,0.5,113.2,0.4,169.7,0c10.6-0.1,14,3.8,14,14.2c-0.3,55.2-0.4,110.5,0.1,165.7c0.1,11.6-4.1,15.1-15.3,14.9C586,198.9,558.4,199.3,530.7,199.3z"/></g><g><path d="M530.7,409.4c-28.3,0-56.6-0.4-84.9,0.2c-11.4,0.2-15.2-3.7-15.2-15.1c0.4-54.6,0.4-109.1,0-163.7c-0.1-10.5,2.1-16.1,14.3-16c56.6,0.5,113.2,0.4,169.7,0c10.6-0.1,14,3.8,14,14.2c-0.3,55.2-0.4,110.5,0.1,165.7c0.1,11.6-4.1,15.1-15.3,14.9C586,409,558.4,409.4,530.7,409.4z"/></g><g><path  d="M744.3,409.4c-28.3,0-56.6-0.4-84.9,0.2c-11.4,0.2-15.2-3.7-15.2-15.1c0.4-54.6,0.4-109.1,0-163.7c-0.1-10.5,2.1-16.1,14.3-16c56.6,0.5,113.2,0.4,169.7,0c10.6-0.1,14,3.8,14,14.2c-0.3,55.2-0.4,110.5,0.1,165.7c0.1,11.6-4.1,15.1-15.3,14.9C799.5,409,771.9,409.4,744.3,409.4z"/></g><g><path d="M101.1,409.4c-28.3,0-56.6-0.4-84.9,0.2C4.8,409.8,0.9,405.9,1,394.5c0.4-54.6,0.4-109.1,0-163.7c-0.1-10.5,2.1-16.1,14.3-16c56.6,0.5,113.2,0.4,169.7,0c10.6-0.1,14,3.8,14,14.2c-0.3,55.2-0.4,110.5,0.1,165.7c0.1,11.6-4.1,15.1-15.3,14.9C156.3,409,128.7,409.4,101.1,409.4z"/></g><g><path d="M314.6,409.4c-28.3,0-56.6-0.4-84.9,0.2c-11.4,0.2-15.2-3.7-15.2-15.1c0.4-54.6,0.4-109.1,0-163.7c-0.1-10.5,2.1-16.1,14.3-16c56.6,0.5,113.2,0.4,169.7,0c10.6-0.1,14,3.8,14,14.2c-0.3,55.2-0.4,110.5,0.1,165.7c0.1,11.6-4.1,15.1-15.3,14.9C369.8,409,342.2,409.4,314.6,409.4z"/></g><g><path d="M1468.8,199.3c-28.3,0-56.6-0.4-84.9,0.2c-11.4,0.2-15.2-3.7-15.2-15.1c0.4-54.6,0.4-109.1,0-163.7c-0.1-10.5,2.1-16.1,14.3-16c56.6,0.5,113.2,0.4,169.7,0c10.6-0.1,14,3.8,14,14.2c-0.3,55.2-0.4,110.5,0.1,165.7c0.1,11.6-4.1,15.1-15.3,14.9C1524,198.9,1496.4,199.3,1468.8,199.3z"/></g><g><path d="M1682.3,199.3c-28.3,0-56.6-0.4-84.9,0.2c-11.4,0.2-15.2-3.7-15.2-15.1c0.4-54.6,0.4-109.1,0-163.7c-0.1-10.5,2.1-16.1,14.3-16c56.6,0.5,113.2,0.4,169.7,0c10.6-0.1,14,3.8,14,14.2c-0.3,55.2-0.4,110.5,0.1,165.7c0.1,11.6-4.1,15.1-15.3,14.9C1737.5,198.9,1709.9,199.3,1682.3,199.3z"/></g><g><path d="M1370.6,1153.4c-28.3,0-56.6-0.4-84.9,0.2c-11.4,0.2-15.2-3.7-15.2-15.1c0.4-54.6,0.4-109.1,0-163.7c-0.1-10.5,2.1-16.1,14.3-16c56.6,0.5,113.2,0.4,169.7,0c10.6-0.1,14,3.8,14,14.2c-0.3,55.2-0.4,110.5,0.1,165.7c0.1,11.6-4.1,15.1-15.3,14.9C1425.8,1153,1398.2,1153.4,1370.6,1153.4z"/></g><g><path d="M1584.2,1153.4c-28.3,0-56.6-0.4-84.9,0.2c-11.4,0.2-15.2-3.7-15.2-15.1c0.4-54.6,0.4-109.1,0-163.7c-0.1-10.5,2.1-16.1,14.3-16c56.6,0.5,113.2,0.4,169.7,0c10.6-0.1,14,3.8,14,14.2c-0.3,55.2-0.4,110.5,0.1,165.7c0.1,11.6-4.1,15.1-15.3,14.9C1639.4,1153,1611.8,1153.4,1584.2,1153.4z"/></g><g><path d="M416.3,1153.4c-28.3,0-56.6-0.4-84.9,0.2c-11.4,0.2-15.2-3.7-15.2-15.1c0.4-54.6,0.4-109.1,0-163.7c-0.1-10.5,2.1-16.1,14.3-16c56.6,0.5,113.2,0.4,169.7,0c10.6-0.1,14,3.8,14,14.2c-0.3,55.2-0.4,110.5,0.1,165.7c0.1,11.6-4.1,15.1-15.3,14.9C471.5,1153,443.9,1153.4,416.3,1153.4z"/></g><g><path  d="M1000.1,1688.9c-28.3,0-56.6-0.4-84.9,0.2c-11.4,0.2-15.2-3.7-15.2-15.1c0.4-54.6,0.4-109.1,0-163.7c-0.1-10.5,2.1-16.1,14.3-16c56.6,0.5,113.2,0.4,169.7,0c10.6-0.1,14,3.8,14,14.2c-0.3,55.2-0.4,110.5,0.1,165.7c0.1,11.6-4.1,15.1-15.3,14.9C1055.4,1688.5,1027.7,1688.9,1000.1,1688.9z"/></g><g><path  d="M1370.6,1365.8c-28.3,0-56.6-0.4-84.9,0.2c-11.4,0.2-15.2-3.7-15.2-15.1c0.4-54.6,0.4-109.1,0-163.7c-0.1-10.5,2.1-16.1,14.3-16c56.6,0.5,113.2,0.4,169.7,0c10.6-0.1,14,3.8,14,14.2c-0.3,55.2-0.4,110.5,0.1,165.7c0.1,11.6-4.1,15.1-15.3,14.9C1425.9,1365.4,1398.2,1365.8,1370.6,1365.8z"/></g><g><path  d="M628.5,1153.4c-28.3,0-56.6-0.4-84.9,0.2c-11.4,0.2-15.2-3.7-15.2-15.1c0.4-54.6,0.4-109.1,0-163.7c-0.1-10.5,2.1-16.1,14.3-16c56.6,0.5,113.2,0.4,169.7,0c10.6-0.1,14,3.8,14,14.2c-0.3,55.2-0.4,110.5,0.1,165.7c0.1,11.6-4.1,15.1-15.3,14.9C683.7,1153,656.1,1153.4,628.5,1153.4z"/></g><g><path  d="M628.5,1365.8c-28.3,0-56.6-0.4-84.9,0.2c-11.4,0.2-15.2-3.7-15.2-15.1c0.4-54.6,0.4-109.1,0-163.7c-0.1-10.5,2.1-16.1,14.3-16c56.6,0.5,113.2,0.4,169.7,0c10.6-0.1,14,3.8,14,14.2c-0.3,55.2-0.4,110.5,0.1,165.7c0.1,11.6-4.1,15.1-15.3,14.9C683.7,1365.4,656.1,1365.8,628.5,1365.8z"/></g><g><path d="M1683.5,407.9c-28.3,0-56.6-0.4-84.9,0.2c-11.4,0.2-15.2-3.7-15.2-15.1c0.4-54.6,0.4-109.1,0-163.7c-0.1-10.5,2.1-16.1,14.3-16c56.6,0.5,113.2,0.4,169.7,0c10.6-0.1,14,3.8,14,14.2c-0.3,55.2-0.4,110.5,0.1,165.7c0.1,11.6-4.1,15.1-15.3,14.9C1738.7,407.5,1711.1,407.9,1683.5,407.9z"/></g><g><path  d="M1897.1,407.9c-28.3,0-56.6-0.4-84.9,0.2c-11.4,0.2-15.2-3.7-15.2-15.1c0.4-54.6,0.4-109.1,0-163.7c-0.1-10.5,2.1-16.1,14.3-16c56.6,0.5,113.2,0.4,169.7,0c10.6-0.1,14,3.8,14,14.2c-0.3,55.2-0.4,110.5,0.1,165.7c0.1,11.6-4.1,15.1-15.3,14.9C1952.3,407.5,1924.7,407.9,1897.1,407.9z"/></g><g><path  d="M1253.2,407.9c-28.3,0-56.6-0.4-84.9,0.2c-11.4,0.2-15.2-3.7-15.2-15.1c0.4-54.6,0.4-109.1,0-163.7c-0.1-10.5,2.1-16.1,14.3-16c56.6,0.5,113.2,0.4,169.7,0c10.6-0.1,14,3.8,14,14.2c-0.3,55.2-0.4,110.5,0.1,165.7c0.1,11.6-4.1,15.1-15.3,14.9C1308.4,407.5,1280.8,407.9,1253.2,407.9z"/></g><g><path  d="M1466.7,407.9c-28.3,0-56.6-0.4-84.9,0.2c-11.4,0.2-15.2-3.7-15.2-15.1c0.4-54.6,0.4-109.1,0-163.7c-0.1-10.5,2.1-16.1,14.3-16c56.6,0.5,113.2,0.4,169.7,0c10.6-0.1,14,3.8,14,14.2c-0.3,55.2-0.4,110.5,0.1,165.7c0.1,11.6-4.1,15.1-15.3,14.9C1522,407.5,1494.3,407.9,1466.7,407.9z"/></g><g><path  d="M1902.9,622.7c-28.3,0-56.6-0.4-84.9,0.2c-11.4,0.2-15.2-3.7-15.2-15.1c0.4-54.6,0.4-109.1,0-163.7c-0.1-10.5,2.1-16.1,14.3-16c56.6,0.5,113.2,0.4,169.7,0c10.6-0.1,14,3.8,14,14.2c-0.3,55.2-0.4,110.5,0.1,165.7c0.1,11.6-4.1,15.1-15.3,14.9C1958.1,622.3,1930.5,622.7,1902.9,622.7z"/></g><g><path  d="M1900.9,831.3c-28.3,0-56.6-0.4-84.9,0.2c-11.4,0.2-15.2-3.7-15.2-15.1c0.4-54.6,0.4-109.1,0-163.7c-0.1-10.5,2.1-16.1,14.3-16c56.6,0.5,113.2,0.4,169.7,0c10.6-0.1,14,3.8,14,14.2c-0.3,55.2-0.4,110.5,0.1,165.7c0.1,11.6-4.1,15.1-15.3,14.9C1956.1,830.9,1928.5,831.3,1900.9,831.3z"/></g><g><path d="M101,622.2c-28.3,0-56.6-0.4-84.9,0.2C4.8,622.6,0.9,618.7,1,607.3c0.4-54.6,0.4-109.1,0-163.7c-0.1-10.5,2.1-16.1,14.3-16c56.6,0.5,113.2,0.4,169.7,0c10.6-0.1,14,3.8,14,14.2c-0.3,55.2-0.4,110.5,0.1,165.7c0.1,11.6-4.1,15.1-15.3,14.9C156.3,621.8,128.7,622.2,101,622.2z"/></g><g><path d="M99,830.8c-28.3,0-56.6-0.4-84.9,0.2C2.7,831.3-1.1,827.3-1,815.9c0.4-54.6,0.4-109.1,0-163.7c-0.1-10.5,2.1-16.1,14.3-16c56.6,0.5,113.2,0.4,169.7,0c10.6-0.1,14,3.8,14,14.2c-0.3,55.2-0.4,110.5,0.1,165.7c0.1,11.6-4.1,15.1-15.3,14.9C154.2,830.4,126.6,830.8,99,830.8z"/></g><g><path  d="M1254,959.6c-0.1,162.2-0.5,324.5,0.2,486.7c0.1,19.2-4.8,24.9-24.4,24.8c-152.8-0.8-305.6-0.7-458.4,0c-18.5,0.1-23.8-4.8-23.7-23.6c0.7-154.1,0.5-308.3,0.3-462.4c0-8.5,2.4-17.6-3.6-25.4c8.8-13.4,22.8-9.5,34.9-9.5c146.6-0.3,293.3-0.2,439.9-0.2c6.1,0,12.1-0.2,18.1,0.7C1243.8,951.5,1250.8,952,1254,959.6z"/></g><g><path  d="M726.9,428.9c-0.1,162.2-0.5,324.5,0.2,486.7c0.1,19.2-4.8,24.9-24.4,24.8c-152.8-0.8-305.6-0.7-458.4,0c-18.5,0.1-23.8-4.8-23.7-23.6c0.7-154.1,0.5-308.3,0.3-462.4c0-8.5,2.4-17.6-3.6-25.4c8.8-13.4,22.8-9.5,34.9-9.5c146.6-0.3,293.3-0.2,439.9-0.2c6.1,0,12.1-0.2,18.1,0.7C716.7,420.8,723.7,421.3,726.9,428.9z"/></g><g><path  d="M1254,428.9c-0.1,162.2-0.5,324.5,0.2,486.7c0.1,19.2-4.8,24.9-24.4,24.8c-152.8-0.8-305.6-0.7-458.4,0c-18.5,0.1-23.8-4.8-23.7-23.6c0.7-154.1,0.5-308.3,0.3-462.4c0-8.5,2.4-17.6-3.6-25.4c8.8-13.4,22.8-9.5,34.9-9.5c146.6-0.3,293.3-0.2,439.9-0.2c6.1,0,12.1-0.2,18.1,0.7C1243.8,420.8,1250.8,421.3,1254,428.9z"/></g><g><path  d="M1779.7,428.9c-0.1,162.2-0.5,324.5,0.2,486.7c0.1,19.2-4.8,24.9-24.4,24.8c-152.8-0.8-305.6-0.7-458.4,0c-18.5,0.1-23.8-4.8-23.7-23.6c0.7-154.1,0.5-308.3,0.3-462.4c0-8.5,2.4-17.6-3.6-25.4c8.8-13.4,22.8-9.5,34.9-9.5c146.6-0.3,293.3-0.2,439.9-0.2c6.1,0,12.1-0.2,18.1,0.7C1769.5,420.8,1776.5,421.3,1779.7,428.9z"/></g></svg>
