<svg xmlns="http://www.w3.org/2000/svg" xmlns:xlink="http://www.w3.org/1999/xlink" version="1.1"  x="0px" y="0px" viewBox="0 0 1927.2 2002.1" enable-background="new 0 0 1927.2 2002.1" xml:space="preserve"><g><polygon points="188.2,1009.7 0,1335.3 192.8,1669.1 567.1,1669.1 948.9,1009.7 "/></g><g><polygon  points="582.4,1675.7 771.1,2002.1 1156.2,2002.1 1343.5,1677.4 963,1018 "/></g><g><polygon  points="1927.2,1335.3 1739,1009.7 977.5,1009.7 1357.6,1669.1 1734.5,1669.1 "/></g><g><polygon points="568.8,333.8 192.8,333.8 0,667.6 187.8,993.2 948.9,993.2 "/></g><g><polygon points="1739,993.2 1927.2,667.2 1734.5,333.4 1358.9,333.4 977.5,993.2 "/></g><g><polygon points="1344.4,325.5 1156.2,0 771.1,0 582.8,325.5 963,984.9 "/></g></svg>
