<svg xmlns="http://www.w3.org/2000/svg" xmlns:xlink="http://www.w3.org/1999/xlink" version="1.1" x="0px" y="0px" viewBox="0 0 2000 1816.1" enable-background="new 0 0 2000 1816.1" xml:space="preserve"><g><path d="M898,1117.8H446.4H187v259.4v179.5c0,143.1,116.3,259.4,259.4,259.4h451.2H1157v-259.4v-179.5v-259.4H898z"/></g><g><path d="M1782.1,711h-384.3h-217.9v218.3v427.8c0,120.2,97.7,217.9,217.9,217.9h384.3H2000v-217.9V929.2C2000,808.6,1902.3,711,1782.1,711z"/></g><g><path d="M867.5,0H289.8H0v289.8v511.7c0,160.1,129.7,289.8,289.8,289.8h577.7h289.8V801.5V289.8C1157.4,129.7,1027.7,0,867.5,0z"/></g></svg>
